<svg version="1.2" xmlns="http://www.w3.org/2000/svg" viewBox="0 0 320 100" width="320" height="100">
	<title>meesh-media-logo</title>
	<style>
		.s0 { fill: #190c27 } 
		.s1 { fill: #ffffff } 
	</style>
	<path id="Background" class="s0" d="m0 0h320v100h-320z"/>
	<g id="flower">
	</g>
	<path id="Bar" class="s1" d="m305 4h9.6v92.9h-9.6z"/>
	<path id="Your complete digital solution" class="s1" aria-label="Your complete digital solution"  d="m16.3 61.4l2.4 5.6 2.4-5.6h3.1l-4.1 8.3v5.3h-2.8v-5.2l-4.2-8.4zm10.9 8.4q0 1.5 0.5 2.3 0.4 0.8 1.4 0.8 0.9 0 1.4-0.8 0.4-0.8 0.4-2.3 0-1.6-0.4-2.3-0.5-0.8-1.4-0.8-1 0-1.5 0.8-0.4 0.7-0.4 2.3zm6.6 0q0 1.3-0.3 2.3-0.4 1-1 1.7-0.6 0.7-1.5 1-0.9 0.4-2 0.4-1 0-1.9-0.4-0.8-0.3-1.4-1-0.7-0.7-1-1.7-0.4-1-0.4-2.3 0-1.3 0.3-2.3 0.4-1 1-1.7 0.6-0.7 1.5-1 0.9-0.4 2-0.4 1 0 1.9 0.4 0.8 0.3 1.5 1 0.6 0.7 1 1.7 0.3 1 0.3 2.3zm11.4 5.2h-2.2l-0.4-1.3h-0.1q-0.2 0.4-0.6 0.7-0.3 0.2-0.7 0.4-0.3 0.2-0.8 0.3-0.4 0.1-0.8 0.1-0.8 0-1.4-0.2-0.6-0.3-1.1-0.7-0.4-0.5-0.7-1.2-0.2-0.7-0.2-1.7v-6.8h2.8v6.1q0 1.1 0.4 1.7 0.3 0.5 1 0.5 0.6 0 1-0.2 0.3-0.2 0.6-0.7 0.2-0.4 0.3-1 0.1-0.7 0.1-1.5v-4.9h2.8zm8.4-10.5q0.1 0 0.2 0 0.1 0 0.3 0 0.1 0 0.2 0 0.1 0 0.2 0v2.7q-0.1 0-0.2 0-0.2-0.1-0.3-0.1-0.2 0-0.3 0-0.1 0-0.2 0-0.6 0-1 0.1-0.5 0.2-0.8 0.5-0.4 0.3-0.5 0.8-0.2 0.5-0.2 1.2v5.3h-2.8v-10.3h2.1l0.4 1.5h0.2q0.2-0.4 0.4-0.7 0.3-0.3 0.6-0.6 0.3-0.2 0.7-0.3 0.4-0.1 1-0.1zm12.1 10.7q-1.2 0-2.1-0.3-0.8-0.3-1.5-0.9-0.6-0.7-1-1.7-0.3-1-0.3-2.4 0-1.6 0.3-2.6 0.4-1 1-1.7 0.7-0.6 1.6-0.9 0.9-0.2 2-0.2 0.8 0 1.5 0.2 0.8 0.2 1.5 0.5l-0.8 2.2q-0.6-0.3-1.2-0.5-0.5-0.2-1-0.2-1.1 0-1.5 0.8-0.5 0.8-0.5 2.4 0 1.5 0.5 2.3 0.4 0.7 1.4 0.7 0.8 0 1.5-0.2 0.6-0.2 1.3-0.5v2.3q-0.3 0.2-0.6 0.3-0.4 0.2-0.7 0.2-0.3 0.1-0.7 0.2-0.3 0-0.7 0zm7.5-5.4q0 1.6 0.4 2.4 0.5 0.7 1.4 0.7 1 0 1.4-0.7 0.5-0.8 0.5-2.4 0-1.5-0.5-2.3-0.4-0.8-1.4-0.8-1 0-1.4 0.8-0.4 0.8-0.4 2.3zm6.6 0q0 1.3-0.4 2.3-0.3 1-0.9 1.7-0.6 0.7-1.5 1.1-0.9 0.3-2 0.3-1 0-1.9-0.3-0.9-0.4-1.5-1.1-0.6-0.7-1-1.7-0.3-1-0.3-2.3 0-1.3 0.3-2.3 0.3-1 1-1.6 0.6-0.7 1.5-1.1 0.8-0.3 2-0.3 1 0 1.8 0.3 0.9 0.4 1.5 1.1 0.7 0.6 1 1.6 0.4 1 0.4 2.3zm11.3 0v5.2h-2.8v-6q0-1.2-0.4-1.7-0.3-0.6-1-0.6-0.5 0-0.9 0.2-0.4 0.3-0.6 0.7-0.2 0.4-0.3 1.1-0.1 0.6-0.1 1.4v4.9h-2.8v-10.3h2.2l0.3 1.3h0.2q0.2-0.4 0.5-0.7 0.4-0.3 0.7-0.5 0.4-0.2 0.8-0.2 0.4-0.1 0.9-0.1 1 0 1.8 0.3 0.7 0.4 1.1 1.2h0.2q0.3-0.4 0.6-0.7 0.3-0.3 0.7-0.5 0.4-0.2 0.8-0.2 0.4-0.1 0.8-0.1 1.7 0 2.5 0.9 0.9 0.9 0.9 2.9v6.7h-2.8v-6q0-1.2-0.4-1.7-0.3-0.6-1-0.6-1 0-1.5 0.8-0.4 0.8-0.4 2.3zm14.5 5.4q-0.6 0-1-0.1-0.4-0.1-0.7-0.3-0.3-0.2-0.5-0.4-0.3-0.3-0.5-0.5h-0.1q0 0.3 0.1 0.6 0 0.2 0 0.5 0 0.3 0 0.4v4.2h-2.8v-14.9h2.3l0.4 1.3h0.1q0.2-0.3 0.5-0.6 0.2-0.3 0.6-0.5 0.3-0.2 0.7-0.3 0.4-0.1 0.9-0.1 0.8 0 1.5 0.3 0.7 0.3 1.1 1 0.5 0.7 0.8 1.7 0.2 1 0.2 2.3 0 1.4-0.2 2.4-0.3 1-0.8 1.6-0.5 0.7-1.2 1.1-0.6 0.3-1.4 0.3zm-0.9-8.5q-0.5 0-0.8 0.2-0.4 0.2-0.6 0.5-0.2 0.4-0.3 0.9 0 0.5-0.1 1.2v0.3q0 0.8 0.1 1.3 0.1 0.6 0.3 1 0.2 0.4 0.6 0.6 0.3 0.2 0.8 0.2 0.8 0 1.2-0.8 0.4-0.8 0.4-2.3 0-1.5-0.4-2.3-0.4-0.8-1.2-0.8zm9.8-6.1v14.4h-2.8v-14.4zm7.1 5.9q-0.7 0-1.2 0.5-0.5 0.5-0.6 1.7h3.6q0-0.5-0.1-0.9-0.1-0.4-0.3-0.7-0.3-0.3-0.6-0.5-0.3-0.1-0.8-0.1zm0.4 8.7q-1.1 0-2.1-0.3-0.9-0.3-1.6-1-0.7-0.6-1-1.6-0.4-1-0.4-2.4 0-1.3 0.3-2.4 0.4-1 1-1.7 0.6-0.7 1.5-1 0.8-0.3 1.9-0.3 1 0 1.9 0.3 0.8 0.3 1.4 0.9 0.5 0.6 0.9 1.5 0.3 0.8 0.3 2v1.3h-6.4q0.1 0.6 0.2 1.1 0.2 0.5 0.5 0.8 0.3 0.4 0.8 0.5 0.4 0.2 1 0.2 0.4 0 0.9 0 0.4-0.1 0.8-0.2 0.4-0.1 0.8-0.2 0.4-0.2 0.8-0.4v2.2q-0.4 0.2-0.8 0.3-0.3 0.1-0.8 0.2-0.4 0.1-0.9 0.2-0.4 0-1 0zm10.7-2.2q0.4 0 0.8-0.1 0.3-0.1 0.7-0.3v2.1q-0.4 0.2-1 0.4-0.5 0.1-1.2 0.1-0.7 0-1.3-0.1-0.6-0.2-1-0.6-0.4-0.4-0.7-1-0.2-0.7-0.2-1.7v-5h-1.4v-1.2l1.6-1 0.8-2.2h1.8v2.3h2.5v2.1h-2.5v5q0 0.6 0.3 0.9 0.3 0.3 0.8 0.3zm7.8-6.5q-0.7 0-1.2 0.5-0.5 0.5-0.6 1.7h3.6q0-0.5-0.1-0.9-0.1-0.4-0.3-0.7-0.3-0.3-0.6-0.5-0.3-0.1-0.8-0.1zm0.4 8.7q-1.1 0-2.1-0.3-0.9-0.3-1.6-1-0.7-0.6-1-1.6-0.4-1-0.4-2.4 0-1.3 0.3-2.4 0.4-1 1-1.7 0.6-0.7 1.5-1 0.8-0.3 1.9-0.3 1 0 1.9 0.3 0.8 0.3 1.4 0.9 0.6 0.6 0.9 1.5 0.3 0.8 0.3 2v1.3h-6.4q0.1 0.6 0.2 1.1 0.2 0.5 0.5 0.8 0.3 0.4 0.8 0.5 0.4 0.2 1 0.2 0.5 0 0.9 0 0.4-0.1 0.8-0.2 0.4-0.1 0.8-0.2 0.4-0.2 0.8-0.4v2.2q-0.4 0.2-0.8 0.3-0.3 0.1-0.8 0.2-0.4 0.1-0.9 0.2-0.4 0-1 0zm14.5 0q-0.8 0-1.5-0.3-0.7-0.4-1.1-1-0.5-0.7-0.8-1.7-0.2-1-0.2-2.3 0-1.4 0.2-2.4 0.3-1 0.8-1.7 0.5-0.7 1.1-1 0.7-0.3 1.5-0.3 0.5 0 1 0.1 0.4 0.1 0.7 0.3 0.3 0.2 0.6 0.5 0.3 0.3 0.5 0.6h0.1q-0.1-0.4-0.1-0.8-0.1-0.3-0.1-0.6 0-0.4 0-0.7v-3.3h2.8v14.4h-2.2l-0.5-1.3h-0.1q-0.2 0.3-0.5 0.6-0.2 0.3-0.6 0.5-0.3 0.2-0.7 0.3-0.4 0.1-0.9 0.1zm1-2.2q0.5 0 0.8-0.2 0.4-0.2 0.6-0.5 0.2-0.4 0.3-0.9 0.1-0.5 0.2-1.2v-0.3q0-0.8-0.1-1.4-0.1-0.5-0.3-0.9-0.3-0.4-0.6-0.6-0.4-0.2-0.9-0.2-0.9 0-1.3 0.8-0.5 0.8-0.5 2.3 0 1.5 0.5 2.3 0.4 0.8 1.3 0.8zm7.3-11q0-0.4 0.2-0.7 0.1-0.3 0.3-0.4 0.2-0.2 0.5-0.2 0.3-0.1 0.6-0.1 0.3 0 0.6 0.1 0.2 0 0.5 0.2 0.2 0.1 0.3 0.4 0.1 0.3 0.1 0.7 0 0.4-0.1 0.6-0.1 0.3-0.3 0.5-0.3 0.1-0.5 0.2-0.3 0.1-0.6 0.1-0.3 0-0.6-0.1-0.3-0.1-0.5-0.2-0.2-0.2-0.3-0.5-0.2-0.2-0.2-0.6zm3 2.7v10.3h-2.8v-10.3zm8 0h3.5v1.5l-1.5 0.5q0.2 0.3 0.3 0.6 0 0.4 0 0.8 0 0.8-0.2 1.4-0.3 0.7-0.8 1.1-0.5 0.5-1.2 0.8-0.7 0.2-1.7 0.2-0.2 0-0.5 0-0.2 0-0.4-0.1-0.1 0.2-0.3 0.4-0.1 0.1-0.1 0.4 0 0.2 0.2 0.3 0.1 0.1 0.3 0.2 0.2 0 0.4 0.1 0.3 0 0.6 0h1.6q0.7 0 1.3 0.2 0.6 0.1 1 0.5 0.4 0.3 0.7 0.9 0.2 0.5 0.2 1.3 0 0.9-0.4 1.6-0.3 0.7-1 1.2-0.7 0.5-1.8 0.7-1 0.3-2.4 0.3-1 0-1.8-0.2-0.8-0.2-1.3-0.6-0.5-0.4-0.8-0.9-0.3-0.5-0.3-1.2 0-0.5 0.2-1 0.2-0.4 0.5-0.7 0.4-0.3 0.8-0.5 0.4-0.1 0.8-0.3-0.2 0-0.4-0.2-0.2-0.1-0.3-0.3-0.2-0.2-0.3-0.5-0.1-0.2-0.1-0.5 0-0.3 0.1-0.5 0.1-0.2 0.3-0.4 0.2-0.3 0.4-0.4 0.3-0.2 0.6-0.4-0.8-0.4-1.3-1.1-0.5-0.8-0.5-1.9 0-0.8 0.3-1.5 0.2-0.6 0.7-1.1 0.5-0.5 1.3-0.7 0.7-0.2 1.7-0.2 0.2 0 0.4 0 0.2 0 0.4 0 0.3 0.1 0.5 0.1 0.2 0 0.3 0.1zm-3.9 11.8q0 0.2 0.1 0.4 0.1 0.3 0.3 0.4 0.2 0.2 0.6 0.3 0.3 0.1 0.9 0.1 1.4 0 2.2-0.4 0.7-0.4 0.7-1.1 0-0.6-0.5-0.8-0.4-0.2-1.4-0.2h-1.3q-0.2 0-0.5 0.1-0.3 0-0.6 0.2-0.2 0.1-0.4 0.4-0.1 0.2-0.1 0.6zm1-8.4q0 0.8 0.3 1.3 0.3 0.4 1 0.4 0.6 0 0.9-0.4 0.3-0.5 0.3-1.3 0-0.9-0.3-1.4-0.2-0.5-0.9-0.5-1.3 0-1.3 1.9zm8.2-6.1q0-0.4 0.1-0.7 0.1-0.3 0.3-0.4 0.2-0.2 0.5-0.2 0.3-0.1 0.6-0.1 0.3 0 0.6 0.1 0.3 0 0.5 0.2 0.2 0.1 0.3 0.4 0.2 0.3 0.2 0.7 0 0.4-0.2 0.6-0.1 0.3-0.3 0.5-0.2 0.1-0.5 0.2-0.3 0.1-0.6 0.1-0.3 0-0.6-0.1-0.3-0.1-0.5-0.2-0.2-0.2-0.3-0.5-0.1-0.2-0.1-0.6zm2.9 2.7v10.3h-2.8v-10.3zm7.2 8.3q0.4 0 0.8-0.1 0.4-0.1 0.7-0.3v2.1q-0.4 0.2-0.9 0.4-0.6 0.1-1.3 0.1-0.7 0-1.3-0.1-0.6-0.2-1-0.6-0.4-0.4-0.7-1-0.2-0.7-0.2-1.7v-5h-1.4v-1.2l1.6-1 0.8-2.2h1.8v2.3h2.5v2.1h-2.5v5q0 0.6 0.3 0.9 0.3 0.3 0.8 0.3zm11.6 2h-1.9l-0.6-1.4h-0.1q-0.3 0.4-0.6 0.7-0.3 0.3-0.6 0.5-0.4 0.2-0.9 0.3-0.4 0.1-1 0.1-0.6 0-1.2-0.2-0.5-0.2-0.9-0.6-0.4-0.4-0.6-1-0.2-0.6-0.2-1.5 0-1.6 1-2.4 1.1-0.8 3.2-0.9h1.6v-0.8q0-0.6-0.3-1-0.4-0.3-1.1-0.3-0.6 0-1.3 0.2-0.6 0.2-1.3 0.6l-0.9-1.9q0.8-0.5 1.7-0.7 1-0.3 2-0.3 2 0 3 1 1 0.9 1 2.7zm-2.8-3.9v-0.9h-0.9q-0.6 0.1-1 0.2-0.4 0.1-0.6 0.3-0.2 0.3-0.3 0.6-0.1 0.3-0.1 0.6 0 0.7 0.3 1 0.3 0.2 0.8 0.2 0.4 0 0.7-0.1 0.4-0.1 0.6-0.4 0.3-0.3 0.4-0.6 0.1-0.4 0.1-0.9zm8.6-10.5v14.4h-2.8v-14.4zm14.8 11.3q0 0.9-0.3 1.5-0.3 0.6-0.9 1-0.5 0.4-1.3 0.6-0.8 0.2-1.7 0.2-0.6 0-1 0-0.4-0.1-0.8-0.1-0.4-0.1-0.8-0.2-0.3-0.1-0.7-0.3v-2.3q0.4 0.2 0.8 0.3 0.5 0.2 0.9 0.3 0.4 0.1 0.8 0.2 0.4 0 0.8 0 0.3 0 0.6 0 0.3-0.1 0.4-0.2 0.2-0.2 0.3-0.3 0.1-0.2 0.1-0.4 0-0.2-0.1-0.3 0-0.2-0.3-0.4-0.2-0.1-0.6-0.4-0.4-0.2-1.1-0.5-0.7-0.3-1.2-0.6-0.5-0.3-0.8-0.7-0.3-0.3-0.5-0.8-0.1-0.5-0.1-1.2 0-0.7 0.3-1.2 0.2-0.6 0.7-0.9 0.6-0.4 1.3-0.6 0.7-0.2 1.6-0.2 0.9 0 1.7 0.3 0.9 0.2 1.8 0.6l-0.9 2q-0.7-0.3-1.3-0.5-0.7-0.3-1.3-0.3-0.6 0-0.9 0.3-0.2 0.2-0.2 0.5 0 0.2 0.1 0.3 0 0.2 0.2 0.3 0.2 0.2 0.6 0.4 0.3 0.1 0.9 0.4 0.6 0.3 1.2 0.6 0.5 0.3 0.9 0.6 0.4 0.4 0.6 0.9 0.2 0.4 0.2 1.1zm4.6-2.1q0 1.6 0.4 2.3 0.4 0.8 1.4 0.8 1 0 1.4-0.8 0.5-0.7 0.5-2.3 0-1.5-0.5-2.3-0.4-0.8-1.4-0.8-1 0-1.4 0.8-0.4 0.8-0.4 2.3zm6.5 0q0 1.3-0.3 2.3-0.3 1-0.9 1.7-0.7 0.7-1.5 1-0.9 0.4-2 0.4-1.1 0-1.9-0.4-0.9-0.3-1.5-1-0.6-0.7-1-1.7-0.3-1-0.3-2.3 0-1.3 0.3-2.3 0.3-1 0.9-1.7 0.6-0.6 1.5-1 0.9-0.4 2-0.4 1.1 0 1.9 0.4 0.9 0.4 1.5 1 0.6 0.7 1 1.7 0.3 1 0.3 2.3zm5.3-9.2v14.4h-2.8v-14.4zm11.9 14.4h-2.2l-0.4-1.3h-0.1q-0.2 0.4-0.6 0.7-0.3 0.3-0.7 0.4-0.3 0.2-0.8 0.3-0.4 0.1-0.8 0.1-0.8 0-1.4-0.2-0.6-0.2-1.1-0.7-0.4-0.5-0.7-1.2-0.2-0.7-0.2-1.7v-6.8h2.8v6.1q0 1.1 0.4 1.7 0.3 0.5 1 0.5 0.6 0 1-0.2 0.3-0.2 0.6-0.6 0.2-0.5 0.3-1.1 0.1-0.7 0.1-1.5v-4.9h2.8zm7.2-2q0.4 0 0.8-0.1 0.3-0.1 0.7-0.2v2.1q-0.4 0.2-1 0.3-0.5 0.1-1.2 0.1-0.7 0-1.3-0.1-0.6-0.2-1-0.6-0.4-0.4-0.7-1-0.2-0.7-0.2-1.7v-5h-1.4v-1.2l1.6-0.9 0.8-2.2h1.8v2.2h2.5v2.1h-2.5v5q0 0.6 0.3 0.9 0.3 0.3 0.8 0.3zm3.5-11q0-0.4 0.1-0.7 0.1-0.2 0.4-0.4 0.2-0.2 0.4-0.2 0.3-0.1 0.6-0.1 0.4 0 0.6 0.1 0.3 0 0.5 0.2 0.2 0.2 0.4 0.4 0.1 0.3 0.1 0.7 0 0.4-0.1 0.6-0.2 0.3-0.4 0.5-0.2 0.1-0.5 0.2-0.2 0.1-0.6 0.1-0.3 0-0.6-0.1-0.2-0.1-0.4-0.2-0.3-0.2-0.4-0.5-0.1-0.2-0.1-0.6zm3 2.7v10.3h-2.9v-10.3zm5.4 5.1q0 1.6 0.4 2.4 0.4 0.8 1.4 0.8 1 0 1.4-0.8 0.5-0.8 0.5-2.4 0-1.5-0.5-2.3-0.4-0.7-1.4-0.7-1 0-1.4 0.7-0.4 0.8-0.4 2.3zm6.5 0q0 1.3-0.3 2.3-0.3 1-0.9 1.7-0.7 0.7-1.5 1.1-0.9 0.3-2 0.3-1.1 0-1.9-0.3-0.9-0.4-1.5-1.1-0.6-0.7-1-1.7-0.3-1-0.3-2.3 0-1.2 0.3-2.3 0.3-1 0.9-1.6 0.6-0.7 1.5-1.1 0.9-0.3 2-0.3 1.1 0 1.9 0.3 0.9 0.4 1.5 1.1 0.6 0.6 1 1.6 0.3 1.1 0.3 2.3zm11.5-1.5v6.7h-2.9v-6q0-1.1-0.3-1.7-0.3-0.6-1.1-0.6-0.5 0-0.9 0.3-0.4 0.2-0.6 0.6-0.2 0.5-0.3 1.1-0.1 0.6-0.1 1.5v4.8h-2.8v-10.3h2.1l0.4 1.3h0.2q0.2-0.4 0.5-0.7 0.3-0.3 0.7-0.5 0.4-0.1 0.8-0.2 0.5-0.1 0.9-0.1 0.8 0 1.4 0.2 0.6 0.2 1 0.7 0.5 0.4 0.7 1.2 0.3 0.7 0.3 1.7z"/>
	<path id="Meesh Media" class="s1" aria-label="Meesh Media"  d="m30.1 52h-6.2l-7.1-25.2h-0.2q0.1 2 0.2 3.9 0.1 0.8 0.1 1.7 0 0.8 0.1 1.7 0 0.8 0 1.6 0 0.7 0 1.4v14.9h-6.1v-32.1h9.3l7 24.5h0.1l7.4-24.5h9.3v32.1h-6.4v-15.2q0-0.6 0-1.3 0-0.7 0-1.5 0.1-0.9 0.1-1.7 0-0.8 0.1-1.6 0-1.9 0.1-3.9h-0.2zm31.3-20.2q-1.7 0-2.9 1.2-1.2 1.3-1.4 4h8.6q0-1.2-0.3-2.1-0.3-0.9-0.8-1.6-0.5-0.7-1.3-1.1-0.8-0.4-1.9-0.4zm0.9 20.7q-2.6 0-4.9-0.8-2.2-0.8-3.8-2.3-1.6-1.6-2.5-3.9-0.9-2.4-0.9-5.6 0-3.2 0.9-5.6 0.8-2.4 2.2-4 1.5-1.7 3.5-2.5 2.1-0.8 4.6-0.8 2.4 0 4.4 0.8 2 0.7 3.3 2.1 1.4 1.4 2.1 3.5 0.8 2.1 0.8 4.8v3.2h-15q0 1.4 0.4 2.6 0.5 1.1 1.2 1.9 0.7 0.8 1.8 1.2 1 0.4 2.4 0.4 1.1 0 2.1-0.1 1-0.1 1.9-0.4 1-0.2 1.9-0.6 0.9-0.4 1.9-0.8v5.1q-0.9 0.5-1.8 0.8-0.9 0.3-1.9 0.6-1 0.2-2.1 0.3-1.1 0.1-2.5 0.1zm25.3-20.7q-1.8 0-3 1.2-1.1 1.3-1.3 4h8.5q0-1.2-0.3-2.1-0.2-0.9-0.7-1.6-0.6-0.7-1.4-1.1-0.8-0.4-1.8-0.4zm0.8 20.7q-2.6 0-4.8-0.8-2.2-0.8-3.8-2.3-1.6-1.6-2.5-3.9-0.9-2.4-0.9-5.6 0-3.2 0.8-5.6 0.8-2.4 2.3-4 1.4-1.7 3.5-2.5 2-0.8 4.5-0.8 2.5 0 4.4 0.8 2 0.7 3.4 2.1 1.4 1.4 2.1 3.5 0.7 2.1 0.7 4.8v3.2h-14.9q0 1.4 0.4 2.6 0.4 1.1 1.1 1.9 0.8 0.8 1.8 1.2 1.1 0.4 2.4 0.4 1.1 0 2.1-0.1 1-0.1 2-0.4 0.9-0.2 1.8-0.6 1-0.4 1.9-0.8v5.1q-0.8 0.5-1.7 0.8-0.9 0.3-1.9 0.6-1 0.2-2.1 0.3-1.2 0.1-2.6 0.1zm31.8-7.8q0 2-0.7 3.4-0.7 1.5-2 2.4-1.3 1-3.2 1.5-1.8 0.5-4.1 0.5-1.2 0-2.2-0.1-1.1-0.1-2-0.2-0.9-0.2-1.8-0.5-0.8-0.3-1.7-0.6v-5.6q0.9 0.5 1.9 0.9 1.1 0.3 2.1 0.6 1 0.3 1.9 0.4 1 0.2 1.8 0.2 0.9 0 1.5-0.2 0.7-0.1 1.1-0.4 0.4-0.3 0.6-0.7 0.2-0.5 0.2-0.9 0-0.5-0.2-0.8-0.1-0.4-0.6-0.8-0.5-0.4-1.5-0.9-1-0.5-2.6-1.3-1.6-0.7-2.8-1.4-1.2-0.7-2-1.6-0.7-0.9-1.1-2-0.4-1.2-0.4-2.7 0-1.7 0.7-3 0.7-1.3 1.9-2.2 1.2-0.8 2.9-1.2 1.7-0.5 3.8-0.5 2.2 0 4.1 0.5 2 0.5 4.1 1.5l-2 4.8q-1.7-0.8-3.2-1.3-1.5-0.5-3-0.5-1.4 0-2 0.5-0.6 0.4-0.6 1.3 0 0.4 0.2 0.8 0.1 0.3 0.6 0.7 0.4 0.3 1.3 0.8 0.8 0.4 2.1 1 1.6 0.7 2.9 1.4 1.2 0.6 2.1 1.5 0.9 0.8 1.4 2 0.5 1.1 0.5 2.7zm26.6-8.7v16h-6.7v-14.3q0-2.7-0.9-4-0.8-1.3-2.5-1.3-1.3 0-2.2 0.5-0.9 0.5-1.4 1.6-0.5 1-0.7 2.5-0.2 1.5-0.2 3.5v11.5h-6.7v-34.1h6.7v6.9q0 0.9-0.1 2 0 1-0.1 1.8-0.1 1.1-0.2 2h0.4q1.1-1.9 2.7-2.7 1.7-0.9 3.8-0.9 1.8 0 3.3 0.5 1.5 0.5 2.6 1.6 1 1.1 1.6 2.9 0.6 1.7 0.6 4zm38.3 16h-6.3l-7.1-25.2h-0.2q0.2 2.1 0.3 3.9 0 0.9 0 1.7 0.1 0.9 0.1 1.7 0 0.8 0 1.6 0.1 0.8 0.1 1.4v14.9h-6.1v-32.1h9.3l6.9 24.6h0.1l7.4-24.6h9.3v32.1h-6.4v-15.2q0-0.5 0-1.3 0.1-0.7 0.1-1.5 0-0.8 0-1.6 0.1-0.9 0.1-1.7 0.1-1.8 0.1-3.8h-0.1zm31.3-20.3q-1.8 0-3 1.3-1.2 1.2-1.3 3.9h8.5q0-1.1-0.3-2.1-0.2-0.9-0.8-1.6-0.5-0.7-1.3-1.1-0.8-0.4-1.8-0.4zm0.8 20.7q-2.6 0-4.8-0.7-2.2-0.8-3.8-2.4-1.7-1.5-2.6-3.9-0.8-2.3-0.8-5.5 0-3.3 0.8-5.7 0.8-2.4 2.2-4 1.5-1.6 3.6-2.4 2-0.8 4.5-0.8 2.5 0 4.4 0.7 2 0.7 3.4 2.2 1.4 1.4 2.1 3.5 0.7 2 0.7 4.7v3.3h-15q0.1 1.4 0.5 2.5 0.4 1.1 1.1 1.9 0.8 0.8 1.8 1.2 1.1 0.4 2.4 0.4 1.1 0 2.1-0.1 1-0.1 2-0.3 0.9-0.3 1.8-0.6 0.9-0.4 1.9-0.9v5.2q-0.9 0.4-1.8 0.8-0.8 0.3-1.8 0.5-1 0.2-2.2 0.3-1.1 0.1-2.5 0.1zm22.6 0q-1.9 0-3.4-0.8-1.6-0.8-2.7-2.4-1.1-1.6-1.8-4-0.6-2.3-0.6-5.5 0-3.1 0.6-5.5 0.7-2.4 1.8-4 1.2-1.6 2.8-2.4 1.6-0.8 3.5-0.8 1.2 0 2.2 0.2 1 0.3 1.8 0.8 0.8 0.5 1.4 1.2 0.6 0.6 1.1 1.4h0.2q-0.1-0.9-0.2-1.8-0.1-0.7-0.2-1.6-0.1-0.8-0.1-1.5v-7.9h6.7v34.2h-5.1l-1.3-3.2h-0.3q-0.4 0.7-1 1.4-0.6 0.7-1.4 1.2-0.8 0.5-1.8 0.7-0.9 0.3-2.2 0.3zm2.5-5.3q1.1 0 2-0.4 0.8-0.4 1.3-1.2 0.5-0.9 0.8-2.1 0.3-1.2 0.3-2.9v-0.7q0-1.8-0.2-3.2-0.3-1.4-0.8-2.3-0.5-0.9-1.3-1.4-0.9-0.5-2.2-0.5-2.1 0-3.1 1.9-1 1.9-1 5.5 0 3.7 1 5.5 1 1.8 3.2 1.8zm17.4-26q0-1 0.2-1.6 0.3-0.6 0.8-1 0.5-0.4 1.2-0.6 0.7-0.1 1.4-0.1 0.8 0 1.4 0.1 0.7 0.2 1.2 0.6 0.5 0.4 0.7 1 0.4 0.6 0.4 1.6 0 0.9-0.4 1.5-0.2 0.7-0.7 1.1-0.5 0.3-1.2 0.5-0.6 0.2-1.4 0.2-0.7 0-1.4-0.2-0.7-0.2-1.2-0.5-0.5-0.4-0.8-1.1-0.2-0.6-0.2-1.5zm6.9 6.3v24.6h-6.7v-24.6zm26 24.6h-4.7l-1.3-3.4h-0.2q-0.7 1-1.4 1.8-0.7 0.7-1.6 1.1-0.8 0.5-1.9 0.7-1.1 0.2-2.5 0.2-1.5 0-2.8-0.4-1.2-0.5-2.2-1.5-0.9-0.9-1.4-2.4-0.5-1.5-0.5-3.5 0-3.9 2.5-5.7 2.5-1.9 7.5-2.1l3.9-0.1v-1.9q0-1.5-0.9-2.2-0.9-0.7-2.5-0.7-1.6 0-3.1 0.4-1.5 0.5-3 1.3l-2.2-4.5q1.9-1 4.1-1.6 2.3-0.6 4.7-0.6 4.6 0 7.1 2.2 2.4 2.1 2.4 6.5zm-6.6-9.3v-2.1l-2.3 0.1q-1.3 0.1-2.2 0.4-0.9 0.3-1.5 0.8-0.6 0.5-0.8 1.2-0.3 0.7-0.3 1.6 0 1.6 0.8 2.2 0.7 0.7 1.9 0.7 1 0 1.7-0.4 0.8-0.3 1.4-0.9 0.6-0.6 0.9-1.5 0.4-1 0.4-2.1z"/>
</svg>